<?xml version="1.0" standalone="yes"?>
<svg xmlns="http://www.w3.org/2000/svg" width="500" height="500">
<path style="fill:#010101; stroke:none;" d="M0 0L0 500L500 500L500 0L0 0z"/>
<path style="fill:#c1dcff; stroke:none;" d="M209 235C200.648 231.592 192.597 229.276 184 233.684C162.922 244.492 169.76 281.007 194 281.74C199.78 281.915 204.835 279.147 210 277C212.332 280.598 216.013 279.997 220 280L220 230C220 224.357 221.916 214.438 219.397 209.318C217.606 205.68 210.455 206.32 209.318 210.148C207.183 217.34 209 227.501 209 235M375 280L376 280L376 208L385 208L385 280C387.292 274.538 386 266.887 386 261L386 221C386 215.62 386.965 202.88 377.318 207.603C373.025 209.705 375 221.023 375 225L375 280z"/>
<path style="fill:#4d95fa; stroke:none;" d="M376 208L376 280L385 280L385 208L376 208z"/>
<path style="fill:#c1dcff; stroke:none;" d="M66 209L66 210L74 210L66 209M82 209L82 210L90 210L82 209z"/>
<path style="fill:#4d95fa; stroke:none;" d="M62 210L62 280C73.6916 280 91.6504 283.354 101.996 276.995C113.836 269.717 114.941 248.519 101 243C102.91 239.795 104.996 236.743 105.671 233C110.533 206.006 79.1858 210 62 210z"/>
<path style="fill:#8ebeff; stroke:none;" d="M92 210L93 211L92 210z"/>
<path style="fill:#c1dcff; stroke:none;" d="M93.6667 210.333L94.3333 210.667L93.6667 210.333z"/>
<path style="fill:#8ebeff; stroke:none;" d="M95 211L96 212L95 211z"/>
<path style="fill:#c1dcff; stroke:none;" d="M96 211L97 212L96 211z"/>
<path style="fill:#8ebeff; stroke:none;" d="M97 212L98 213L97 212z"/>
<path style="fill:#c1dcff; stroke:none;" d="M98 212L99 213L98 212z"/>
<path style="fill:#8ebeff; stroke:none;" d="M99 213L101 215L99 213z"/>
<path style="fill:#c1dcff; stroke:none;" d="M100 213L101 214L100 213M101 214L102 215L101 214M102 215L104 217L102 215z"/>
<path style="fill:#8ebeff; stroke:none;" d="M102 216L103 217L102 216M103 217L104 218L103 217z"/>
<path style="fill:#c1dcff; stroke:none;" d="M104 218L105 219L104 218z"/>
<path style="fill:#8ebeff; stroke:none;" d="M72 219L73 220L72 219z"/>
<path style="fill:#c1dcff; stroke:none;" d="M72 238L73 238L73 220L91 220C87.392 218.486 74.7081 217.041 72.6034 221.318C70.5074 225.578 72 233.315 72 238z"/>
<path style="fill:#8ebeff; stroke:none;" d="M91 219L92 220L91 219M104 219L105 220L104 219z"/>
<path style="fill:#010101; stroke:none;" d="M73 220L73 238C78.7199 238 86.6007 239.395 91.9815 237.258C98.8657 234.523 99.4855 224.715 92.9452 221.179C87.7019 218.344 78.8099 220 73 220z"/>
<path style="fill:#c1dcff; stroke:none;" d="M92.6667 220.333L93.3333 220.667L92.6667 220.333M105 220L106 221L105 220z"/>
<path style="fill:#4d95fa; stroke:none;" d="M345 220L345 233L346 233L345 220z"/>
<path style="fill:#026aff; stroke:none;" d="M346 220L345.397 230.772L339 241C348.435 241.72 346 251.847 346 259C346 274.766 349.579 283.234 367 280L365 273C352.774 274.601 353.999 261.601 354 253C354 249.899 353.178 245.029 355.603 242.603C358.188 240.019 363.677 241 367 241L367 233C356.018 233 354 230.982 354 220L346 220z"/>
<path style="fill:#4d95fa; stroke:none;" d="M354 220L354 232L355 232L354 220z"/>
<path style="fill:#c1dcff; stroke:none;" d="M94 221L95 222L94 221z"/>
<path style="fill:#8ebeff; stroke:none;" d="M105 221L106 222L105 221z"/>
<path style="fill:#c1dcff; stroke:none;" d="M95 222L96 223L95 222M106 222L106 225L107 225L106 222M96 223L97 224L96 223z"/>
<path style="fill:#8ebeff; stroke:none;" d="M97 224L98 225L97 224z"/>
<path style="fill:#c1dcff; stroke:none;" d="M97.3333 225.667L97.6667 226.333L97.3333 225.667z"/>
<path style="fill:#8ebeff; stroke:none;" d="M106 225L106 231L107 231L106 225M98.3333 228.667L98.6667 229.333L98.3333 228.667z"/>
<path style="fill:#c1dcff; stroke:none;" d="M97.3333 231.667L97.6667 232.333L97.3333 231.667M106 231L106 234L107 234L106 231M248 231L248 232L257 232L248 231M306 231L306 232L314 232L306 231M121 232L121 267L122 267L122 233L130 233L130 263L131 263L131 232L121 232M153 232L153 233L163 233L153 232M231 246L232 246C235.147 239.391 239.943 235.077 247 233C239.676 230.997 232.947 239.904 231 246z"/>
<path style="fill:#8ebeff; stroke:none;" d="M268 272C267.094 291.781 248.989 292.33 235 285C235.014 303.069 263.382 301.967 272.2 289.96C282.188 276.359 277 249.021 277 233L269 233L268 237C263.45 234.616 259.252 232.273 254 232.041C222.359 230.645 223.244 279.461 255 276.907C259.822 276.519 263.968 274.536 268 272z"/>
<path style="fill:#c1dcff; stroke:none;" d="M258 232L258 233L261 233L258 232M269 232L269 233L277 233L269 232M302.667 232.333L303.333 232.667L302.667 232.333z"/>
<path style="fill:#8ebeff; stroke:none;" d="M304 232L305 233L304 232z"/>
<path style="fill:#4d95fa; stroke:none;" d="M330 274L330 273C323.67 267.717 321.012 272.235 314 272.775C305.91 273.398 299.312 267.234 297 260L332 260C331.844 252.462 330.41 243.669 324.892 238.105C314.242 227.366 296.209 231.758 289.92 245C277.626 270.884 309.369 290.908 330 274z"/>
<path style="fill:#8ebeff; stroke:none;" d="M315 232L316 233L315 232z"/>
<path style="fill:#c1dcff; stroke:none;" d="M316.667 232.333L317.333 232.667L316.667 232.333M344 232L345 233L344 232M355 232L355 233L368 233L355 232M392 232L409.822 274L401 299C404.415 299.382 409.579 299.903 412.351 297.397C416.756 293.414 418.858 284.338 421.309 279C428.049 264.318 439.165 247.953 442 232C426.042 232 423.43 246.765 418 260L416 260C410.625 247.09 407.503 232 392 232z"/>
<path style="fill:#8ebeff; stroke:none;" d="M97 233L98 234L97 233M122 233C122 248.941 116.518 286.527 144 280.319C147.612 279.503 150.753 277.7 154 276C155.722 280.284 158.774 279.985 163 280L163 233L153 233C153 242.077 156.031 257.826 151.821 265.985C147.576 274.212 135.647 274.576 131.653 265.985C127.44 256.922 130 242.794 130 233L122 233z"/>
<path style="fill:#c1dcff; stroke:none;" d="M261.667 233.333L262.333 233.667L261.667 233.333M300 233L301 234L300 233z"/>
<path style="fill:#8ebeff; stroke:none;" d="M301 233L302 234L301 233M318 233L319 234L318 233z"/>
<path style="fill:#c1dcff; stroke:none;" d="M319 233L319 234L322 235L319 233M341 233L342 234L341 233z"/>
<path style="fill:#8ebeff; stroke:none;" d="M342 233L343 234L342 233z"/>
<path style="fill:#4d95fa; stroke:none;" d="M343 233L344 234L343 233M367 233L367 241L368 241L367 233z"/>
<path style="fill:#c1dcff; stroke:none;" d="M96 234L97 235L96 234z"/>
<path style="fill:#8ebeff; stroke:none;" d="M105 234L106 235L105 234z"/>
<path style="fill:#c1dcff; stroke:none;" d="M163 234L163 273L164 273C164 261.828 167.311 244.274 163 234M263.667 234.333L264.333 234.667L263.667 234.333M268.333 234.667L268.667 235.333L268.333 234.667M298 234L299 235L298 234z"/>
<path style="fill:#8ebeff; stroke:none;" d="M299 234L300 235L299 234M320 234L321 235L320 234z"/>
<path style="fill:#c1dcff; stroke:none;" d="M338 234L339 235L338 234z"/>
<path style="fill:#4d95fa; stroke:none;" d="M339 234L340 235L339 234z"/>
<path style="fill:#c1dcff; stroke:none;" d="M95 235L96 236L95 235M105.333 235.667L105.667 236.333L105.333 235.667M265 235L266 236L265 235M297 235L298 236L297 235z"/>
<path style="fill:#8ebeff; stroke:none;" d="M322 235L327 240L322 235z"/>
<path style="fill:#c1dcff; stroke:none;" d="M323 235L324 236L323 235z"/>
<path style="fill:#4d95fa; stroke:none;" d="M338 235L338 241L339 241L338 235z"/>
<path style="fill:#c1dcff; stroke:none;" d="M94 236L95 237L94 236M266.667 236.333L267.333 236.667L266.667 236.333M295 236L292 240L295 236z"/>
<path style="fill:#8ebeff; stroke:none;" d="M296 236L297 237L296 236z"/>
<path style="fill:#c1dcff; stroke:none;" d="M324 236L325 237L324 236M92 237L93 238L92 237z"/>
<path style="fill:#8ebeff; stroke:none;" d="M93 237L94 238L93 237z"/>
<path style="fill:#c1dcff; stroke:none;" d="M104.333 237.667L104.667 238.333L104.333 237.667z"/>
<path style="fill:#8ebeff; stroke:none;" d="M295 237L296 238L295 237z"/>
<path style="fill:#c1dcff; stroke:none;" d="M325 237L326 238L325 237z"/>
<path style="fill:#8ebeff; stroke:none;" d="M72 238L72 239L91 239L72 238M294 238L295 239L294 238z"/>
<path style="fill:#c1dcff; stroke:none;" d="M326 238L327 239L326 238M103 239L104 240L103 239M277 239L277 243L278 243L277 239z"/>
<path style="fill:#8ebeff; stroke:none;" d="M293 239L294 240L293 239z"/>
<path style="fill:#c1dcff; stroke:none;" d="M102 240L103 241L102 240M249 268L249 267C234.399 258.375 241.149 241.339 257 241C240.591 234.179 232.225 261.446 249 268z"/>
<path style="fill:#8ebeff; stroke:none;" d="M292 240L293 241L292 240M307 240L308 241L307 240z"/>
<path style="fill:#c1dcff; stroke:none;" d="M308 240L308 241L312 241L308 240z"/>
<path style="fill:#8ebeff; stroke:none;" d="M312.667 240.333L313.333 240.667L312.667 240.333z"/>
<path style="fill:#c1dcff; stroke:none;" d="M327 240L328 241L327 240M101 241L101 243L103 243L101 241z"/>
<path style="fill:#010101; stroke:none;" d="M192.001 241.653C175.112 246.947 182.134 277.315 199.985 271.146C215.605 265.748 209.88 236.048 192.001 241.653M250 241.573C232.69 246.512 240.918 272.725 257.999 267.347C273.849 262.358 266.491 236.866 250 241.573z"/>
<path style="fill:#c1dcff; stroke:none;" d="M258 241L258 242L261 242L258 241M291 241L292 242L291 241z"/>
<path style="fill:#8ebeff; stroke:none;" d="M304 241L305 242L304 241z"/>
<path style="fill:#c1dcff; stroke:none;" d="M300 246L307 242L300 246z"/>
<path style="fill:#010101; stroke:none;" d="M298 251C301.148 251.928 303.735 251.896 307 251.615C310.312 251.33 316.653 253.338 319.353 250.972C322.858 247.901 316.588 242.734 313.996 241.743C306.629 238.928 300.706 244.866 298 251z"/>
<path style="fill:#c1dcff; stroke:none;" d="M314 241L315 242L314 241z"/>
<path style="fill:#8ebeff; stroke:none;" d="M315 241L316 242L315 241z"/>
<path style="fill:#c1dcff; stroke:none;" d="M328 241L329 242L328 241M338 241L339 242L338 241z"/>
<path style="fill:#8ebeff; stroke:none;" d="M339 241L339 242L345 242L339 241M355 241L355 242L367 242L355 241z"/>
<path style="fill:#c1dcff; stroke:none;" d="M367 241L368 242L367 241M261 242L262 243L261 242M290 242L291 243L290 242M316 242L317 243L316 242z"/>
<path style="fill:#8ebeff; stroke:none;" d="M328 242L329 243L328 242z"/>
<path style="fill:#4d95fa; stroke:none;" d="M345 242L345 269L346 269L345 242M354 242L354 267L355 267L354 242z"/>
<path style="fill:#c1dcff; stroke:none;" d="M103 243L104 244L103 243M262 243L265 246L262 243z"/>
<path style="fill:#8ebeff; stroke:none;" d="M290 243L291 244L290 243z"/>
<path style="fill:#c1dcff; stroke:none;" d="M317 243L319 245L317 243z"/>
<path style="fill:#8ebeff; stroke:none;" d="M318 243L319 244L318 243z"/>
<path style="fill:#c1dcff; stroke:none;" d="M329.333 243.667L329.667 244.333L329.333 243.667z"/>
<path style="fill:#8ebeff; stroke:none;" d="M104 244L105 245L104 244z"/>
<path style="fill:#c1dcff; stroke:none;" d="M105 244L106 245L105 244M289 244L290 245L289 244M106 245L107 246L106 245z"/>
<path style="fill:#8ebeff; stroke:none;" d="M289 245L290 246L289 245z"/>
<path style="fill:#c1dcff; stroke:none;" d="M319 245L320 246L319 245z"/>
<path style="fill:#8ebeff; stroke:none;" d="M329 245L330 246L329 245z"/>
<path style="fill:#c1dcff; stroke:none;" d="M107 246L108 247L107 246M265.333 246.667L265.667 247.333L265.333 246.667M288.333 246.667L288.667 247.333L288.333 246.667z"/>
<path style="fill:#8ebeff; stroke:none;" d="M299 246L298 248L299 246M320 246L321 247L320 246z"/>
<path style="fill:#c1dcff; stroke:none;" d="M330 246L331 247L330 246z"/>
<path style="fill:#8ebeff; stroke:none;" d="M107 247L108 248L107 247z"/>
<path style="fill:#c1dcff; stroke:none;" d="M230 247L230 250L231 250L230 247M299 247L300 248L299 247M320 247L321 248L320 247z"/>
<path style="fill:#8ebeff; stroke:none;" d="M330.333 247.667L330.667 248.333L330.333 247.667z"/>
<path style="fill:#c1dcff; stroke:none;" d="M72 248L72 270L73 270L72 248z"/>
<path style="fill:#010101; stroke:none;" d="M73 248L73 270C79.7324 270 89.8341 271.869 95.9059 268.543C102.832 264.749 102.517 253.917 95.956 249.938C89.8344 246.226 79.8682 248 73 248z"/>
<path style="fill:#c1dcff; stroke:none;" d="M92 248L92 249L95 249L92 248z"/>
<path style="fill:#8ebeff; stroke:none;" d="M95 248L96 249L95 248z"/>
<path style="fill:#c1dcff; stroke:none;" d="M108 248L109 249L108 248M266 248L266 251L267 251L266 248z"/>
<path style="fill:#8ebeff; stroke:none;" d="M288 248L289 249L288 248z"/>
<path style="fill:#c1dcff; stroke:none;" d="M298.333 248.667L298.667 249.333L298.333 248.667z"/>
<path style="fill:#8ebeff; stroke:none;" d="M321 248L322 249L321 248z"/>
<path style="fill:#c1dcff; stroke:none;" d="M96 249L97 250L96 249M109.333 249.667L109.667 250.333L109.333 249.667M287.333 249.667L287.667 250.333L287.333 249.667M321 249L320 252L321 249M331.333 249.667L331.667 250.333L331.333 249.667M97 250L100 253L97 250z"/>
<path style="fill:#8ebeff; stroke:none;" d="M98 250L99 251L98 250z"/>
<path style="fill:#c1dcff; stroke:none;" d="M277 250L277 276L278 276L277 250z"/>
<path style="fill:#8ebeff; stroke:none;" d="M297 250L298 251L297 250M99 251L100 252L99 251z"/>
<path style="fill:#c1dcff; stroke:none;" d="M110.333 251.667L110.667 252.333L110.333 251.667M229 251L229 258L230 258L229 251z"/>
<path style="fill:#8ebeff; stroke:none;" d="M287 251L287 254L288 254L287 251z"/>
<path style="fill:#c1dcff; stroke:none;" d="M297.667 251.333L298.333 251.667L297.667 251.333M307 251L307 252L312 252L307 251z"/>
<path style="fill:#8ebeff; stroke:none;" d="M331 251L331 254L332 254L331 251M297 252L297 253L322 253L297 252z"/>
<path style="fill:#c1dcff; stroke:none;" d="M100.333 253.667L100.667 254.333L100.333 253.667z"/>
<path style="fill:#8ebeff; stroke:none;" d="M110 253L111 254L110 253z"/>
<path style="fill:#c1dcff; stroke:none;" d="M267 253L267 256L268 256L267 253z"/>
<path style="fill:#8ebeff; stroke:none;" d="M101 255L102 256L101 255z"/>
<path style="fill:#c1dcff; stroke:none;" d="M111 255L111 259L112 259L111 255M332 255L332 261L333 261L332 255M101 256L101 262L102 262L101 256M266 258L266 261L267 261L266 258z"/>
<path style="fill:#8ebeff; stroke:none;" d="M111 259L111 262L112 262L111 259z"/>
<path style="fill:#c1dcff; stroke:none;" d="M230 259L230 262L231 262L230 259z"/>
<path style="fill:#8ebeff; stroke:none;" d="M287.333 259.667L287.667 260.333L287.333 259.667M297 260L297 261L332 261L297 260z"/>
<path style="fill:#c1dcff; stroke:none;" d="M265.333 261.667L265.667 262.333L265.333 261.667M287 261L287 264L288 264L287 261M297 261L298 262L297 261z"/>
<path style="fill:#8ebeff; stroke:none;" d="M101 262L102 263L101 262z"/>
<path style="fill:#c1dcff; stroke:none;" d="M111 262L111 266L112 266L111 262z"/>
<path style="fill:#8ebeff; stroke:none;" d="M297 262L298 263L297 262z"/>
<path style="fill:#c1dcff; stroke:none;" d="M152 263L152 266L153 266L152 263M231.333 263.667L231.667 264.333L231.333 263.667M264 263L265 264L264 263M298 263L299 266L300 266L298 263M100 264L99 267L100 267L100 264M131 264L131 267L132 267L131 264M263 264L264 265L263 264z"/>
<path style="fill:#8ebeff; stroke:none;" d="M288 264L289 265L288 264M298 264L299 265L298 264M100 265L101 266L100 265z"/>
<path style="fill:#c1dcff; stroke:none;" d="M232.333 265.667L232.667 266.333L232.333 265.667M262 265L263 266L262 265M288 265L289 266L288 265z"/>
<path style="fill:#8ebeff; stroke:none;" d="M110 266L111 267L110 266z"/>
<path style="fill:#c1dcff; stroke:none;" d="M151 266L150 269L151 266M260.667 266.333L261.333 266.667L260.667 266.333z"/>
<path style="fill:#8ebeff; stroke:none;" d="M289 266L290 267L289 266z"/>
<path style="fill:#c1dcff; stroke:none;" d="M300 266L303 269L300 266M98 267L99 268L98 267M110 267L111 268L110 267M132 267L136 271L132 267M233 267L234 268L233 267M258.667 267.333L259.333 267.667L258.667 267.333M289 267L291 270L289 267z"/>
<path style="fill:#8ebeff; stroke:none;" d="M300 267L301 268L300 267z"/>
<path style="fill:#c1dcff; stroke:none;" d="M323 268L323 269L331 273L323 268M94 269L94 270L98 269L94 269M122.333 268.667L122.667 269.333L122.333 268.667M234.333 268.667L234.667 269.333L234.333 268.667M250 268L250 269L257 269L250 268z"/>
<path style="fill:#8ebeff; stroke:none;" d="M290 268L291 269L290 268M301 268L302 269L301 268M324.667 268.333L325.333 268.667L324.667 268.333M96 269L97 270L96 269z"/>
<path style="fill:#c1dcff; stroke:none;" d="M109 269L110 270L109 269M147 271L150 269L147 271M303 269L304 270L303 269M322 269L323 270L322 269z"/>
<path style="fill:#8ebeff; stroke:none;" d="M326 269L327 270L326 269M345.333 269.667L345.667 270.333L345.333 269.667z"/>
<path style="fill:#c1dcff; stroke:none;" d="M355 269L356 270L355 269z"/>
<path style="fill:#8ebeff; stroke:none;" d="M72 270L72 271L94 271L72 270M108 270L109 271L108 270z"/>
<path style="fill:#c1dcff; stroke:none;" d="M235 270L236 271L235 270z"/>
<path style="fill:#8ebeff; stroke:none;" d="M291 270L293 272L291 270M304 270L305 271L304 270z"/>
<path style="fill:#c1dcff; stroke:none;" d="M305 270L306 271L305 270M320 270L321 271L320 270z"/>
<path style="fill:#8ebeff; stroke:none;" d="M321 270L322 271L321 270M327 270L328 271L327 270M355 270L356 271L355 270z"/>
<path style="fill:#c1dcff; stroke:none;" d="M108 271L109 272L108 271M123.333 271.667L123.667 272.333L123.333 271.667M136.667 271.333L137.333 271.667L136.667 271.333M144 271L144 272L147 272L144 271M236 271L237 272L236 271M291 271L292 272L291 271z"/>
<path style="fill:#8ebeff; stroke:none;" d="M306 271L307 272L306 271z"/>
<path style="fill:#c1dcff; stroke:none;" d="M307 271L308 272L307 271M317.667 271.333L318.333 271.667L317.667 271.333z"/>
<path style="fill:#8ebeff; stroke:none;" d="M319 271L320 272L319 271M328 271L329 272L328 271z"/>
<path style="fill:#c1dcff; stroke:none;" d="M345 271L346 272L345 271M356 271L357 272L356 271M107 272L108 273L107 272M139 272L139 273L144 273L139 272M237 272L238 273L237 272M267 272L264 274L264 275L267 274L267 278L268 278L267 272M292 272L293 273L292 272z"/>
<path style="fill:#8ebeff; stroke:none;" d="M309 272L310 273L309 272z"/>
<path style="fill:#c1dcff; stroke:none;" d="M310 272L310 273L315 273L310 272z"/>
<path style="fill:#8ebeff; stroke:none;" d="M315.667 272.333L316.333 272.667L315.667 272.333M329 272L330 273L329 272z"/>
<path style="fill:#c1dcff; stroke:none;" d="M357.667 272.333L358.333 272.667L357.667 272.333M364.667 272.333L365.333 272.667L364.667 272.333z"/>
<path style="fill:#8ebeff; stroke:none;" d="M106 273L107 274L106 273z"/>
<path style="fill:#c1dcff; stroke:none;" d="M124 273L125 274L124 273M238.667 273.333L239.333 273.667L238.667 273.333M293 273L294 274L293 273z"/>
<path style="fill:#8ebeff; stroke:none;" d="M330 273L328 276L330 273z"/>
<path style="fill:#4d95fa; stroke:none;" d="M346 273L347 274L346 273M359 273L359 274L363 274L359 273M365 273L366 274L365 273z"/>
<path style="fill:#8ebeff; stroke:none;" d="M105 274L106 275L105 274z"/>
<path style="fill:#c1dcff; stroke:none;" d="M125 274L129 278L125 274M240 274L241 275L240 274M294 274L295 275L294 274M330 274L331 275L330 274M346 274L347 275L346 274M366.333 274.667L366.667 275.333L366.333 274.667z"/>
<path style="fill:#8ebeff; stroke:none;" d="M104 275L105 276L104 275z"/>
<path style="fill:#c1dcff; stroke:none;" d="M241.667 275.333L242.333 275.667L241.667 275.333M261 275L261 276L264 276L261 275M295 275L296 276L295 275M329 275L330 276L329 275z"/>
<path style="fill:#4d95fa; stroke:none;" d="M347 275L348 276L347 275z"/>
<path style="fill:#c1dcff; stroke:none;" d="M103 276L104 277L103 276M152 276L154 278L154 276L152 276M244.667 276.333L245.333 276.667L244.667 276.333M258 276L258 277L261 277L258 276M296 276L299 278L299 277L296 276z"/>
<path style="fill:#8ebeff; stroke:none;" d="M297 276L298 277L297 276z"/>
<path style="fill:#c1dcff; stroke:none;" d="M327.667 276.333L328.333 276.667L327.667 276.333M347 276L348 277L347 276z"/>
<path style="fill:#8ebeff; stroke:none;" d="M366 276L367 277L366 276M101 277L102 278L101 277z"/>
<path style="fill:#c1dcff; stroke:none;" d="M102 277L103 278L102 277M151 277L152 278L151 277M247 277L247 278L258 278L247 277z"/>
<path style="fill:#8ebeff; stroke:none;" d="M325 277L326 278L325 277z"/>
<path style="fill:#c1dcff; stroke:none;" d="M326 277L327 278L326 277z"/>
<path style="fill:#8ebeff; stroke:none;" d="M348 277L349 278L348 277z"/>
<path style="fill:#4d95fa; stroke:none;" d="M366 277L367 278L366 277z"/>
<path style="fill:#8ebeff; stroke:none;" d="M99 278L100 279L99 278z"/>
<path style="fill:#c1dcff; stroke:none;" d="M100 278L101 279L100 278M129 278L130 279L129 278M149.667 278.333L150.333 278.667L149.667 278.333M154.333 278.667L154.667 279.333L154.333 278.667M276 278L276 283L277 283L276 278M299 278L300 279L299 278z"/>
<path style="fill:#8ebeff; stroke:none;" d="M300 278L301 279L300 278M323 278L324 279L323 278z"/>
<path style="fill:#c1dcff; stroke:none;" d="M324 278L325 279L324 278z"/>
<path style="fill:#8ebeff; stroke:none;" d="M349 278L350 279L349 278z"/>
<path style="fill:#c1dcff; stroke:none;" d="M367.333 278.667L367.667 279.333L367.333 278.667z"/>
<path style="fill:#8ebeff; stroke:none;" d="M95.6667 279.333L96.3333 279.667L95.6667 279.333z"/>
<path style="fill:#c1dcff; stroke:none;" d="M97 279L98 280L97 279M131.667 279.333L132.333 279.667L131.667 279.333M147.667 279.333L148.333 279.667L147.667 279.333M266.333 279.667L266.667 280.333L266.333 279.667M301.667 279.333L302.333 279.667L301.667 279.333z"/>
<path style="fill:#8ebeff; stroke:none;" d="M303 279L304 280L303 279M320.667 279.333L321.333 279.667L320.667 279.333z"/>
<path style="fill:#c1dcff; stroke:none;" d="M322 279L323 280L322 279z"/>
<path style="fill:#8ebeff; stroke:none;" d="M350 279L351 280L350 279z"/>
<path style="fill:#c1dcff; stroke:none;" d="M133 280L133 281L137 281L133 280M143 280L143 281L146 281L143 280M160.667 280.333L161.333 280.667L160.667 280.333M304.667 280.333L305.333 280.667L304.667 280.333z"/>
<path style="fill:#8ebeff; stroke:none;" d="M306.667 280.333L307.333 280.667L306.667 280.333M316.667 280.333L317.333 280.667L316.667 280.333z"/>
<path style="fill:#c1dcff; stroke:none;" d="M318.667 280.333L319.333 280.667L318.667 280.333M351 280L352 281L351 280z"/>
<path style="fill:#8ebeff; stroke:none;" d="M352 280L353 281L352 280z"/>
<path style="fill:#4d95fa; stroke:none;" d="M364 280L365 281L364 280z"/>
<path style="fill:#8ebeff; stroke:none;" d="M365 280L366 281L365 280z"/>
<path style="fill:#c1dcff; stroke:none;" d="M366 280L367 281L366 280M265.333 281.667L265.667 282.333L265.333 281.667M308 281L308 282L315 282L308 281M353.667 281.333L354.333 281.667L353.667 281.333z"/>
<path style="fill:#8ebeff; stroke:none;" d="M355.667 281.333L356.333 281.667L355.667 281.333z"/>
<path style="fill:#4d95fa; stroke:none;" d="M357 281L357 282L360 282L357 281z"/>
<path style="fill:#8ebeff; stroke:none;" d="M360.667 281.333L361.333 281.667L360.667 281.333z"/>
<path style="fill:#c1dcff; stroke:none;" d="M362.667 281.333L363.333 281.667L362.667 281.333M235 283L237 286L235 283M264 283L263 286L264 283M275 283L275 286L276 286L275 283M234 285L234 294L235 294L234 285M237.667 286.333L238.333 286.667L237.667 286.333M261.667 286.333L262.333 286.667L261.667 286.333M274.333 286.667L274.667 287.333L274.333 286.667M239.667 287.333L240.333 287.667L239.667 287.333M260 287L261 288L260 287M241.667 288.333L242.333 288.667L241.667 288.333M257 288L257 289L260 289L257 288M273 288L274 289L273 288M244 289L244 290L248 290L244 289M253 289L253 290L257 290L253 289M272.333 289.667L272.667 290.333L272.333 289.667M271 291L272 292L271 291M270 292L271 293L270 292M269 293L270 294L269 293M235 294L236 295L235 294M267.667 294.333L268.333 294.667L267.667 294.333M236.667 295.333L237.333 295.667L236.667 295.333M266 295L267 296L266 295M238.667 296.333L239.333 296.667L238.667 296.333M264.667 296.333L265.333 296.667L264.667 296.333M240 297L240 298L243 298L240 297M260 297L260 298L263 298L260 297M244 298L244 299L259 299L244 298z"/>
</svg>
